Coordinates
version=1
nRows=16
nColumns=33
inDegrees=yes

Units are S.I. units (second, meters, Newtons, ...)
Angles are in degrees.

endheader
time	ground_thorax_rot_x	ground_thorax_rot_y	ground_thorax_rot_z	ground_thorax_tx	ground_thorax_ty	ground_thorax_tz	clav_prot_r	clav_elev_r	scapula_abduction_r	scapula_elevation_r	scapula_upward_rot_r	scapula_winging_r	shoulder_elv_r	plane_of_elev_r	axial_rot_r	elbow_flexion_r	pro_sup_r	wrist_flex_r	wrist_dev_r	clav_prot_l	clav_elev_l	scapula_abduction_l	scapula_elevation_l	scapula_upward_rot_l	scapula_winging_l	shoulder_elv_l	plane_of_elev_l	axial_rot_l	elbow_flexion_l	pro_sup_l	wrist_flex_l	wrist_dev_l
      3.06000000	     37.82561533	     10.31508981	     12.23587836	   -217.15592197	    816.84185372	      2.31817180	     15.65847690	     38.09223095	     38.84997592	     45.00000000	    -45.00000000	   2072.62746090	  -2628.77566029	    148.78230223	   -114.19728322	   1104.51047736	    149.97409590	     13.33683816	      5.05332988	     10.47737473	    -45.00000000	    -37.58468842	     45.00000000	    -45.00000000	  -1701.58429909	  -2085.52916980	     22.27908466	    -25.85798521	   1806.58562212	     35.36680930	      5.90995603	    -23.32424150
      3.07000000	     37.74572104	     10.34926524	     12.39113999	   -216.83165186	    816.18100225	      2.42788836	     15.78516034	     37.91655674	     38.72813462	     45.00000000	    -45.00000000	   2073.00192273	  -2628.64538199	    148.93484864	   -113.58147499	   1104.55061967	    149.75977348	     13.52599902	      4.66940445	     10.49790488	    -45.00000000	    -37.47045615	     45.00000000	    -44.95164330	  -1701.63353932	  -2085.50865082	     22.17559398	    -25.86182064	   1806.52201638	     35.43757058	      5.76630498	    -23.29081793
      3.08000000	     37.81424349	     10.40871541	     12.39961047	   -216.38706297	    815.55495175	      2.50084053	     15.71363094	     38.06179455	     38.79128901	     45.00000000	    -45.00000000	   2072.74025702	  -2628.96367799	    148.80973297	   -113.28159330	   1104.47818642	    149.56652117	     13.49836158	      5.02727141	     10.50104175	    -45.00000000	    -37.51874228	     45.00000000	    -45.00000000	  -1701.67636786	  -2085.63195958	     22.23190085	    -25.91590274	   1806.55173137	     35.56281840	      5.73024745	    -23.26825984
      3.09000000	     37.78770521	     10.41170864	     12.53322429	   -215.90759788	    814.98203323	      2.51975767	     15.81221296	     37.94461138	     38.69083699	     45.00000000	    -45.00000000	   2073.20871556	  -2628.61609315	    149.03738808	   -112.72578202	   1104.58349708	    149.29998136	     13.61629645	      4.84402724	     10.50728565	    -45.00000000	    -37.33868180	     45.00000000	    -45.00000000	  -1701.81016931	  -2085.57609969	     22.18198502	    -25.82502472	   1806.55339224	     35.68442794	      5.54866719	    -23.20487912
      3.10000000	     37.82105135	     10.37329706	     12.45057750	   -215.46941967	    814.48093922	      2.46890013	     15.72444665	     38.08287805	     38.80566619	     45.00000000	    -45.00000000	   2072.82238501	  -2628.96542642	    148.75242269	   -112.69563225	   1104.59962383	    149.18134744	     13.54400342	      5.14406207	     10.46494980	    -45.00000000	    -37.38577742	     45.00000000	    -45.00000000	  -1701.82138631	  -2085.71643940	     22.32862670	    -25.81060213	   1806.66566541	     35.88763954	      5.50517994	    -23.23584040
      3.11000000	     37.77079287	     10.51176635	     12.66104789	   -215.11264913	    814.07569325	      2.35970115	     15.81766065	     37.95446855	     38.71221772	     45.00000000	    -45.00000000	   2073.03918972	  -2628.85130781	    148.89540745	   -112.61080815	   1104.62291955	    149.10979508	     13.59394268	      5.13595871	     10.41833961	    -45.00000000	    -37.33841331	     45.00000000	    -45.00000000	  -1701.92346802	  -2085.61314673	     22.28305349	    -25.66480148	   1806.67995726	     36.07311214	      5.33517988	    -23.18008442
      3.12000000	     37.83174493	     10.36436615	     12.62573014	   -214.85656084	    813.77974362	      2.20704539	     15.71711333	     38.06407759	     38.77323471	     45.00000000	    -45.00000000	   2072.85913083	  -2629.02950139	    148.73194310	   -112.77153962	   1104.52966713	    149.18064912	     13.56011282	      5.31455056	     10.43554678	    -45.00000000	    -37.28539115	     45.00000000	    -45.00000000	  -1701.91354769	  -2085.75297368	     22.41618370	    -25.61367424	   1806.71471009	     36.28394034	      5.28275632	    -23.19543925
      3.13000000	     37.80692488	     10.42687532	     12.92090794	   -214.68939732	    813.60460332	      2.03810051	     15.81830032	     37.98169179	     38.67556703	     45.00000000	    -45.00000000	   2073.08270221	  -2628.73254117	    148.89692122	   -112.87077667	   1104.67101599	    149.30161505	     13.55496247	      5.28518365	     10.37044310	    -45.00000000	    -37.22906119	     45.00000000	    -45.00000000	  -1701.95192232	  -2085.72010407	     22.20469547	    -25.40686829	   1806.84066973	     36.43951325	      5.13042809	    -23.16678355
      3.14000000	     37.87656906	     10.15736013	     12.65594912	   -214.59333341	    813.55245662	      1.87043129	     15.68062043	     38.03261120	     38.79672968	     45.00000000	    -45.00000000	   2072.79753143	  -2629.04182474	    148.56846972	   -113.16130363	   1104.52310466	    149.56570232	     13.51911093	      5.43580757	     10.42756605	    -45.00000000	    -37.23739744	     45.00000000	    -44.98294737	  -1701.94207228	  -2085.88773043	     22.51384919	    -25.40898911	   1806.84172397	     36.64862944	      5.14470562	    -23.21178699
      3.15000000	     37.81041865	     10.25077573	     12.85152076	   -214.54226618	    813.61752601	      1.71436405	     15.78690366	     38.01593586	     38.65266053	     45.00000000	    -45.00000000	   2073.07425184	  -2628.78825858	    148.79485428	   -113.31642325	   1104.60898831	    149.85870369	     13.51184341	      5.38245744	     10.36017543	    -45.00000000	    -37.27148117	     45.00000000	    -45.00000000	  -1702.04999154	  -2085.74483555	     22.37415148	    -25.21492503	   1806.84511101	     36.79887377	      5.03783158	    -23.17688810
      3.16000000	     37.84090161	     10.05248478	     12.74120805	   -214.51704485	    813.78581061	      1.57264144	     15.68927675	     38.02196438	     38.80953916	     45.00000000	    -45.00000000	   2072.82424153	  -2628.95757756	    148.59318606	   -113.62613254	   1104.61678350	    150.23824168	     13.45113191	      5.48604080	     10.42118929	    -45.00000000	    -37.28764341	     45.00000000	    -45.00000000	  -1701.99753485	  -2085.84055438	     22.56819679	    -25.14841709	   1806.88614723	     36.91761025	      5.03731829	    -23.20825897
      3.17000000	     37.79435133	     10.09627734	     12.87319729	   -214.49143774	    814.03495240	      1.44350684	     15.77941770	     38.03930867	     38.69851360	     45.00000000	    -45.00000000	   2072.95915541	  -2628.74899358	    148.68727366	   -113.84843369	   1104.76653060	    150.59372306	     13.40749224	      5.45819293	     10.38810305	    -45.00000000	    -37.30250510	     45.00000000	    -45.00000000	  -1702.01209226	  -2085.73144743	     22.50484525	    -24.95639521	   1807.04329661	     36.93790932	      4.96130617	    -23.21023069
      3.18000000	     37.82501601	      9.83306505	     12.75495151	   -214.43851448	    814.33909787	      1.32463883	     15.68447396	     37.96140076	     38.90960428	     45.00000000	    -45.00000000	   2072.70904493	  -2628.95037056	    148.44358859	   -114.22095048	   1104.68878239	    150.99428140	     13.36299284	      5.56134634	     10.48106050	    -45.00000000	    -37.31879676	     45.00000000	    -44.83198895	  -1701.91995398	  -2085.84505415	     22.67313465	    -24.90571899	   1807.01854854	     36.93931513	      5.00075819	    -23.23765895
      3.19000000	     37.75163526	      9.96077401	     12.95119230	   -214.33285340	    814.66976552	      1.21385986	     15.80143636	     38.11646426	     38.71946604	     45.00000000	    -45.00000000	   2072.99217169	  -2628.63930349	    148.65064659	   -114.47474032	   1104.84210705	    151.36081097	     13.33494337	      5.49323173	     10.40506606	    -45.00000000	    -37.43351046	     45.00000000	    -44.85933117	  -1702.01654705	  -2085.72828301	     22.51315076	    -24.74872179	   1807.10513963	     36.84594129	      4.96113906	    -23.23665950
      3.20000000	     37.81792095	      9.69877434	     12.81942824	   -214.15167912	    815.00576873	      1.10756941	     15.69818029	     37.89928184	     38.99596104	     45.00000000	    -45.00000000	   2072.66448898	  -2628.87822113	    148.37766533	   -114.88351929	   1104.72814766	    151.76849081	     13.30641669	      5.58983140	     10.54051802	    -45.00000000	    -37.40375420	     45.00000000	    -44.82088897	  -1701.94873122	  -2085.82610204	     22.77693887	    -24.72181727	   1807.05326463	     36.71788310	      5.00860244	    -23.23679292
      3.21000000	     37.73699736	      9.79225399	     13.02760446	   -213.87750512	    815.32651716	      1.00443002	     15.81528909	     38.13128372	     38.80941037	     45.00000000	    -45.00000000	   2072.97452547	  -2628.60436616	    148.52327008	   -115.13644389	   1104.84193845	    152.12331861	     13.28342436	      5.53503586	     10.46597096	    -45.00000000	    -37.57325032	     45.00000000	    -44.67299905	  -1702.01392163	  -2085.71637829	     22.56778573	    -24.56602921	   1807.08336211	     36.50968138	      5.00065575	    -23.22737758
